<?xml version="1.0" encoding="utf-8"?>
<!-- Generator: Adobe Illustrator 16.0.0, SVG Export Plug-In . SVG Version: 6.00 Build 0)  -->
<!DOCTYPE svg PUBLIC "-//W3C//DTD SVG 1.1//EN" "http://www.w3.org/Graphics/SVG/1.1/DTD/svg11.dtd">
<svg version="1.1" id="Capa_1" xmlns="http://www.w3.org/2000/svg" xmlns:xlink="http://www.w3.org/1999/xlink" x="0px" y="0px"
	 width="20px" height="20px" viewBox="246 246 20 20" enable-background="new 246 246 20 20" xml:space="preserve">
<g>
	<path d="M256,246c-5.523,0-10,4.477-10,10c0,5.523,4.477,10,10,10c5.523,0,10-4.477,10-10C266,250.477,261.523,246,256,246z
		 M256,264.438c-4.66,0-8.438-3.777-8.438-8.438s3.777-8.438,8.438-8.438s8.438,3.777,8.438,8.438c0,1.748-0.531,3.371-1.441,4.718
		C261.48,262.962,258.912,264.438,256,264.438z"/>
	<path d="M258.373,254.469h-1.739v-1.27c0-0.39,0.402-0.48,0.591-0.48c0.187,0,1.123,0,1.123,0v-1.713L257.061,251
		c-1.757,0-2.159,1.277-2.159,2.097v1.373h-1.275v1.765h1.275c0,2.267,0,4.766,0,4.766h1.732c0,0,0-2.525,0-4.766h1.471
		L258.373,254.469z"/>
</g>
</svg>
