<?xml version="1.0" encoding="utf-8"?>
<!-- Generator: Adobe Illustrator 16.0.0, SVG Export Plug-In . SVG Version: 6.00 Build 0)  -->
<!DOCTYPE svg PUBLIC "-//W3C//DTD SVG 1.1//EN" "http://www.w3.org/Graphics/SVG/1.1/DTD/svg11.dtd">
<svg version="1.1" id="Capa_1" xmlns="http://www.w3.org/2000/svg" xmlns:xlink="http://www.w3.org/1999/xlink" x="0px" y="0px"
	 width="30px" height="30px" viewBox="241 241 30 30" enable-background="new 241 241 30 30" xml:space="preserve">
<path fill="#FFFFFF" d="M265.697,264.217l-4.931-4.95c1.268-1.455,1.962-3.286,1.962-5.191c0-4.453-3.752-8.075-8.364-8.075
	s-8.364,3.623-8.364,8.075c0,4.452,3.752,8.075,8.364,8.075c1.731,0,3.381-0.505,4.792-1.462l4.969,4.988
	c0.207,0.208,0.486,0.323,0.786,0.323c0.283,0,0.552-0.104,0.756-0.294C266.101,265.304,266.114,264.636,265.697,264.217z
	 M254.365,248.106c3.409,0,6.182,2.677,6.182,5.969c0,3.291-2.773,5.968-6.182,5.968s-6.182-2.677-6.182-5.968
	C248.183,250.784,250.956,248.106,254.365,248.106z"/>
</svg>
